# xmcd CD database file
#
# Track frame offsets:
#	183
#	29945
#	52728
#	85398
#	110095
#	126870
#	146230
#	174773
#	183858
#
# Disc length: 3113 seconds
#
# Revision: 0
# Processed by: cddbd v1.5.1PL0 Copyright (c) Steve Scherf et al.
# Submitted via: CDex 1.51
#
DISCID=7c0c2709
DTITLE=Yellen 4 - 1,2,3,et...
DYEAR=1900
DGENRE=Jazz
TTITLE0=Allez le the
TTITLE1=Le ton secret
TTITLE2=1.2.3.et...
TTITLE3=Es Bueno
TTITLE4=Léger transport en commun
TTITLE5=Sagitarius
TTITLE6=Si Lacy
TTITLE7=Rêve
TTITLE8=Chasse Splean
EXTD=
EXTT0=
EXTT1=
EXTT2=
EXTT3=
EXTT4=
EXTT5=
EXTT6=
EXTT7=
EXTT8=
PLAYORDER=
